<?xml version="1.0" standalone="no"?>
<!DOCTYPE svg PUBLIC "-//W3C//DTD SVG 20010904//EN"
 "http://www.w3.org/TR/2001/REC-SVG-20010904/DTD/svg10.dtd">
<svg version="1.0" xmlns="http://www.w3.org/2000/svg"
 width="1024.000000pt" height="1024.000000pt" viewBox="0 0 1024.000000 1024.000000"
 preserveAspectRatio="xMidYMid meet">

<g transform="translate(0.000000,1024.000000) scale(0.100000,-0.100000)"
fill="#000000" stroke="none">
<path d="M5163 9088 c-18 -35 -96 -182 -173 -328 -308 -577 -356 -668 -393
-742 -21 -43 -37 -82 -35 -87 4 -11 129 31 263 89 55 23 119 45 142 48 37 4
46 1 73 -26 l30 -30 0 -1232 c0 -677 -4 -1230 -8 -1228 -5 2 -38 37 -73 78
-35 41 -94 107 -131 146 l-68 71 0 937 0 936 -276 0 c-152 0 -274 3 -272 8 2
4 67 134 146 289 78 156 142 287 142 293 0 16 -136 -37 -296 -116 -363 -179
-654 -418 -893 -734 -110 -146 -175 -253 -261 -432 -116 -244 -174 -427 -221
-693 -27 -159 -32 -495 -10 -665 22 -173 78 -419 100 -442 3 -4 28 28 54 72
75 126 202 251 328 324 l46 26 7 88 c12 161 51 270 142 398 89 126 227 223
389 274 54 17 104 23 222 27 l152 6 3 91 3 91 118 3 117 3 0 -306 c0 -168 -2
-305 -4 -305 -2 0 -32 13 -67 30 -106 49 -179 63 -304 58 -80 -4 -125 -11
-165 -26 -125 -49 -222 -147 -266 -268 -24 -64 -24 -70 -24 -437 0 -285 -3
-376 -12 -386 -11 -11 -9 -11 9 -2 13 6 74 11 147 11 l126 0 1 63 c0 34 1 199
2 367 2 285 3 307 22 339 29 49 77 71 153 71 173 0 395 -117 576 -304 70 -72
123 -146 203 -281 32 -55 73 -120 91 -144 38 -53 39 -63 7 -119 -14 -24 -22
-49 -18 -55 3 -6 1 -7 -5 -3 -12 7 -38 -32 -28 -41 3 -3 -2 -12 -12 -20 -9 -8
-12 -12 -6 -9 6 3 26 -6 44 -19 18 -13 36 -22 40 -20 4 3 13 -2 20 -10 10 -12
9 -15 -4 -15 -42 0 13 -76 62 -85 9 -2 19 -4 22 -5 3 -1 9 -2 13 -1 5 1 6 -3
2 -9 -5 -8 -12 -7 -23 2 -13 11 -15 10 -9 -12 5 -18 -2 -38 -25 -73 l-31 -48
59 -63 c33 -35 62 -63 66 -62 5 0 39 41 78 90 l70 89 0 213 0 213 53 79 c30
43 73 112 97 153 68 117 134 201 231 293 100 96 170 146 275 199 194 98 370
94 419 -8 15 -33 17 -75 16 -383 -1 -208 3 -353 9 -362 7 -11 39 -16 132 -21
68 -3 134 -9 148 -14 24 -7 25 -7 5 9 -20 17 -20 17 4 10 20 -5 23 -3 18 11
-4 9 -7 19 -7 21 0 10 -29 3 -33 -8 -3 -7 -6 152 -6 353 -1 402 -4 429 -63
522 -59 93 -170 171 -279 196 -64 15 -215 13 -286 -4 -35 -8 -93 -28 -129 -45
-37 -16 -68 -30 -70 -30 -2 0 -4 137 -4 305 l0 305 115 0 114 0 3 -92 3 -93
145 -6 c163 -7 242 -24 345 -73 144 -68 266 -186 341 -329 52 -100 74 -177 81
-289 l6 -97 81 -53 c135 -89 248 -211 313 -340 l26 -52 17 40 c39 92 95 379
112 576 32 379 -72 868 -269 1262 -262 523 -723 954 -1263 1179 -135 56 -160
63 -160 41 0 -10 63 -140 140 -291 77 -151 140 -278 140 -283 0 -6 -113 -11
-272 -12 l-273 -3 -3 -934 -2 -934 -74 -77 c-40 -42 -101 -112 -135 -154 l-61
-77 0 1236 0 1237 29 29 c31 31 70 37 113 19 96 -41 362 -140 368 -138 4 2
-59 129 -140 283 -82 154 -226 428 -322 609 -96 181 -178 331 -184 333 -5 2
-24 -25 -41 -59z m-1165 -1571 c6 -7 17 -34 24 -60 11 -43 16 -48 50 -58 50
-13 91 -49 83 -71 -7 -17 -47 -34 -95 -40 -21 -3 -27 -12 -40 -61 -19 -72 -40
-88 -69 -51 -12 15 -24 44 -27 65 -6 35 -10 39 -62 56 -95 31 -94 69 3 99 49
16 54 20 60 53 12 67 47 99 73 68z m2552 -69 c6 -18 16 -42 20 -54 5 -13 21
-24 39 -27 42 -9 81 -36 81 -57 0 -25 -22 -40 -67 -47 -50 -8 -59 -16 -67 -62
-3 -20 -15 -46 -27 -57 -21 -19 -21 -19 -40 5 -10 12 -24 40 -30 60 -10 33
-17 39 -67 57 -43 14 -58 24 -60 41 -4 26 30 51 80 60 33 5 39 10 48 42 5 20
10 41 10 48 0 6 7 19 16 27 21 22 48 6 64 -36z m-3116 -494 c9 -8 21 -35 27
-59 10 -41 15 -45 59 -60 26 -9 56 -25 66 -36 27 -30 8 -51 -58 -67 l-55 -14
-12 -53 c-21 -92 -64 -99 -89 -14 -20 66 -24 71 -74 86 -102 29 -84 91 31 105
20 2 27 12 37 51 12 47 29 77 45 77 4 0 15 -7 23 -16z m3586 -79 c6 -8 18 -34
25 -57 11 -39 16 -44 57 -56 93 -26 101 -77 15 -99 -59 -14 -67 -20 -67 -44 0
-31 -27 -89 -45 -95 -23 -9 -35 6 -55 68 -16 50 -20 54 -63 68 -26 8 -54 23
-64 32 -16 16 -16 19 2 38 10 11 39 26 63 34 43 12 47 16 63 67 10 30 19 55
19 57 1 9 40 -1 50 -13z"/>
<path d="M5625 5099 c-9 -17 -14 -37 -11 -44 3 -8 1 -15 -4 -17 -19 -6 -41
-238 -22 -238 4 0 52 16 107 35 55 19 110 35 121 35 20 0 22 7 28 95 7 94 3
119 -21 121 -7 1 -24 2 -38 3 -15 0 -25 7 -25 16 0 11 -11 15 -42 15 -60 0
-89 -21 -57 -41 8 -4 10 -12 5 -16 -5 -4 -11 -2 -13 5 -8 22 -25 13 -18 -10 5
-20 5 -21 -5 -5 -7 11 -8 23 -2 30 11 15 23 47 17 47 -2 0 -12 -14 -20 -31z"/>
<path d="M4772 5070 c1 -51 -10 -110 -20 -109 -25 4 -42 -4 -47 -21 -4 -13
-15 -20 -30 -20 -13 0 -46 -10 -74 -22 l-51 -23 -1 -155 c-1 -85 -3 -172 -4
-192 -1 -21 1 -38 6 -38 23 0 93 53 169 127 l85 82 -1 163 c-1 122 -5 174 -17
208 l-16 45 1 -45z"/>
<path d="M6893 5069 c27 -16 20 -26 -20 -27 -21 -1 -39 -6 -41 -12 -5 -14 -32
-12 -33 3 0 6 -4 3 -8 -8 -5 -12 -4 -26 3 -34 9 -11 8 -13 -4 -9 -8 3 -15 13
-16 24 -2 36 -6 39 -15 9 -5 -19 -5 -31 3 -36 6 -4 8 -14 5 -24 -4 -9 0 -29 8
-45 8 -16 15 -43 15 -61 0 -40 -20 -109 -32 -109 -5 0 -6 -5 -3 -10 4 -6 3 -9
-2 -8 -4 1 -17 -3 -28 -9 -13 -7 -153 -13 -415 -16 -388 -6 -465 -10 -454 -28
3 -5 1 -9 -5 -9 -5 0 -12 6 -14 13 -4 9 -6 9 -6 -1 -1 -7 -6 -10 -12 -6 -6 3
-25 -1 -42 -9 -18 -8 -45 -20 -60 -26 -15 -6 -26 -15 -23 -20 3 -5 -1 -12 -10
-15 -23 -9 -26 -8 -18 7 5 9 3 9 -7 -1 -11 -11 -12 -14 -1 -21 10 -6 8 -10 -7
-14 -12 -3 -19 -1 -15 4 3 5 1 9 -4 9 -5 0 -23 -21 -41 -47 -18 -27 -23 -37
-12 -24 12 13 21 19 21 14 0 -16 -38 -46 -48 -39 -6 3 -22 -9 -36 -26 -14 -18
-31 -40 -39 -49 -23 -27 -66 -141 -92 -243 -14 -58 -33 -108 -45 -121 -11 -12
-17 -25 -13 -30 5 -4 3 -5 -4 -1 -7 4 -23 0 -36 -9 -33 -21 -108 -29 -150 -16
-35 12 -107 80 -107 102 0 5 -5 7 -12 3 -7 -4 -8 -3 -4 5 4 6 1 22 -7 34 -8
12 -13 30 -12 39 2 12 -10 7 -46 -19 -27 -19 -49 -38 -49 -41 0 -4 -14 -13
-30 -20 -17 -8 -28 -18 -24 -23 3 -5 -4 -9 -14 -9 -11 0 -26 -8 -33 -17 -12
-15 -12 -16 1 -8 9 5 12 4 7 -1 -5 -5 -16 -9 -25 -9 -26 0 -17 -27 38 -110 53
-79 118 -137 197 -176 39 -20 67 -25 152 -27 101 -4 191 10 191 29 0 5 8 9 18
9 10 0 38 13 63 28 92 59 156 158 193 297 43 160 115 260 225 309 92 41 143
46 475 46 336 1 426 8 500 39 154 67 248 242 217 407 -12 67 -82 217 -89 194
-2 -6 1 -17 7 -23 27 -27 7 -25 -26 2 -21 17 -44 31 -53 31 -12 -1 -12 -3 3
-11z m-1072 -427 c-7 -2 -18 1 -23 6 -8 8 -4 9 13 5 13 -4 18 -8 10 -11z m-81
-22 c-20 -13 -33 -13 -25 0 3 6 14 10 23 10 15 0 15 -2 2 -10z m-220 -204 c0
-3 -4 -8 -10 -11 -5 -3 -10 -1 -10 4 0 6 5 11 10 11 6 0 10 -2 10 -4z m-560
-270 c0 -2 -8 -10 -17 -17 -16 -13 -17 -12 -4 4 13 16 21 21 21 13z m-35 -35
c3 -5 2 -12 -3 -15 -5 -3 -9 1 -9 9 0 17 3 19 12 6z"/>
<path d="M6086 4953 c-6 -14 -5 -15 5 -6 7 7 10 15 7 18 -3 3 -9 -2 -12 -12z"/>
<path d="M6745 4960 c3 -5 8 -10 11 -10 2 0 4 5 4 10 0 6 -5 10 -11 10 -5 0
-7 -4 -4 -10z"/>
<path d="M3624 4935 c-9 -14 -15 -27 -13 -30 3 -2 12 10 21 26 21 36 15 39 -8
4z"/>
<path d="M5948 4893 c6 -2 18 -2 25 0 6 3 1 5 -13 5 -14 0 -19 -2 -12 -5z"/>
<path d="M3601 4850 c-1 -25 -2 -82 -1 -127 1 -46 -3 -83 -8 -83 -5 0 -12 -18
-16 -40 -3 -22 -11 -40 -16 -40 -6 0 -10 -8 -10 -17 0 -15 -4 -14 -19 6 -14
18 -20 20 -23 10 -3 -8 -1 -22 4 -31 6 -14 5 -16 -7 -12 -8 4 -15 10 -15 14 0
4 -8 11 -17 14 -10 3 -4 -5 12 -19 41 -35 44 -37 90 -64 40 -24 43 -24 365
-26 179 -2 327 -1 330 0 3 2 4 69 2 149 l-3 146 -22 -15 c-31 -22 -524 -22
-566 -1 -40 21 -63 62 -71 125 l-7 56 -2 -45z"/>
<path d="M5005 4499 c-4 -6 -5 -12 -2 -15 2 -3 7 2 10 11 7 17 1 20 -8 4z"/>
<path d="M4967 4453 c-11 -13 -17 -26 -14 -29 2 -3 12 7 21 22 23 33 17 39 -7
7z"/>
<path d="M4910 4391 c-14 -14 -29 -31 -33 -39 -15 -23 26 7 46 35 25 33 18 35
-13 4z"/>
<path d="M4816 4305 c-11 -8 -17 -17 -14 -20 2 -3 13 4 23 15 21 23 18 25 -9
5z"/>
<path d="M4751 4260 c-13 -11 -19 -20 -14 -20 6 0 18 9 28 20 23 25 17 25 -14
0z"/>
<path d="M4660 4210 c-9 -6 -10 -10 -3 -10 6 0 15 5 18 10 8 12 4 12 -15 0z"/>
<path d="M5886 3945 c-3 -9 -6 -24 -5 -33 0 -9 5 -4 10 12 9 32 6 48 -5 21z"/>
<path d="M5862 3863 c-6 -15 -11 -22 -11 -15 -1 15 -21 6 -21 -9 0 -6 5 -7 10
-4 14 9 12 -1 -5 -35 -9 -17 -12 -30 -7 -30 10 0 56 109 49 116 -3 3 -10 -7
-15 -23z"/>
<path d="M5760 3833 c0 -12 5 -25 11 -28 16 -11 17 -2 2 25 -12 24 -13 24 -13
3z"/>
<path d="M5680 3780 c0 -5 16 -11 35 -11 31 -1 40 -2 60 -8 2 0 0 -13 -5 -27
-7 -16 -7 -23 0 -19 6 3 10 1 10 -4 0 -6 -4 -11 -10 -11 -5 0 -9 -5 -7 -11 4
-19 -20 -21 -37 -4 -9 9 -16 30 -16 46 0 19 -5 29 -15 29 -9 0 -15 -9 -15 -24
0 -22 -5 -24 -122 -37 -68 -8 -108 -15 -90 -17 40 -4 40 -11 2 -47 -16 -16
-30 -23 -30 -17 0 7 -16 12 -40 12 -22 0 -40 -4 -40 -10 0 -5 -18 -10 -40 -10
-22 0 -40 5 -40 10 0 6 -33 10 -80 10 -64 0 -80 -3 -80 -15 0 -8 -8 -15 -17
-15 -17 -1 -17 -1 0 -14 26 -20 21 -26 -23 -26 -33 0 -40 -3 -40 -20 0 -18 7
-20 80 -20 47 0 80 4 80 10 0 6 18 10 40 10 29 0 40 -4 40 -15 0 -15 -76 -21
-221 -15 -41 1 -60 -3 -72 -15 -21 -20 -22 -35 -2 -35 8 0 15 -4 15 -10 0 -5
9 -10 20 -10 11 0 20 3 20 8 0 4 55 9 121 11 99 2 120 0 117 -10 -3 -8 -13
-13 -22 -11 -10 2 -25 -3 -34 -10 -13 -10 -14 -10 -8 0 6 10 -10 12 -80 10
-58 -2 -89 -8 -92 -16 -2 -7 6 -12 23 -12 15 0 24 4 20 10 -3 6 -1 10 4 10 6
0 11 -7 11 -15 0 -12 17 -15 91 -15 50 0 88 4 85 9 -3 5 2 15 12 22 15 13 16
12 4 -3 -7 -9 -9 -18 -5 -21 20 -11 156 29 241 70 101 49 207 142 271 236 34
49 33 63 -1 25 l-20 -23 5 23 c3 12 -1 29 -10 37 -16 17 -93 21 -93 5z m-80
-109 c0 -28 -14 -41 -46 -41 -30 0 -34 3 -34 25 0 23 4 25 40 25 22 0 40 -4
40 -9z m131 -2 c9 -5 -3 -24 -41 -63 -48 -50 -82 -74 -65 -46 3 6 2 10 -4 10
-5 0 -11 -6 -14 -12 -3 -7 -4 -3 -4 8 1 15 6 20 16 16 10 -4 12 -1 6 8 -5 9
-4 11 3 6 8 -5 12 3 12 24 0 18 -6 33 -15 36 -8 4 -15 10 -15 15 0 11 103 9
121 -2z m-371 -94 c0 -22 -4 -25 -40 -25 -29 0 -40 4 -40 15 0 11 -11 15 -40
15 -22 0 -40 5 -40 10 0 6 33 10 80 10 79 0 80 0 80 -25z m160 15 c0 -5 -18
-10 -40 -10 -22 0 -40 5 -40 10 0 6 18 10 40 10 22 0 40 -4 40 -10z m0 -60 c0
-5 0 -13 -1 -16 0 -4 4 -10 11 -14 6 -4 -10 -16 -40 -28 -28 -12 -48 -17 -44
-11 3 6 17 14 30 20 20 7 23 11 12 22 -7 8 -20 12 -30 9 -12 -3 -18 1 -18 12
0 12 10 16 40 16 22 0 40 -4 40 -10z m-480 -40 c0 -13 -11 -13 -30 0 -12 8
-11 10 8 10 12 0 22 -4 22 -10z m285 -10 c4 -6 -5 -10 -19 -10 -14 0 -26 5
-26 10 0 6 9 10 19 10 11 0 23 -4 26 -10z m-170 -60 c-3 -5 -16 -10 -28 -9
-20 1 -20 2 3 9 14 4 26 8 28 9 2 1 0 -3 -3 -9z m42 4 c-3 -3 -12 -4 -19 -1
-8 3 -5 6 6 6 11 1 17 -2 13 -5z"/>
<path d="M5707 3663 c-4 -3 -7 -11 -7 -17 0 -6 5 -5 12 2 6 6 9 14 7 17 -3 3
-9 2 -12 -2z"/>
<path d="M5681 3644 c0 -11 3 -14 6 -6 3 7 2 16 -1 19 -3 4 -6 -2 -5 -13z"/>
<path d="M5644 3585 c-10 -8 -14 -15 -8 -15 6 0 17 7 24 15 16 19 9 19 -16 0z"/>
<path d="M4586 3737 c3 -10 9 -15 12 -12 3 3 0 11 -7 18 -10 9 -11 8 -5 -6z"/>
<path d="M4615 3719 c-4 -6 -5 -12 -2 -15 2 -3 7 2 10 11 7 17 1 20 -8 4z"/>
<path d="M5088 3693 c6 -2 18 -2 25 0 6 3 1 5 -13 5 -14 0 -19 -2 -12 -5z"/>
<path d="M4988 3683 c7 -3 16 -2 19 1 4 3 -2 6 -13 5 -11 0 -14 -3 -6 -6z"/>
<path d="M4645 3669 c-4 -6 -5 -12 -2 -15 2 -3 7 2 10 11 7 17 1 20 -8 4z"/>
<path d="M4704 3669 c-3 -6 -2 -15 3 -20 5 -5 9 -1 9 11 0 23 -2 24 -12 9z"/>
<path d="M4660 3642 c0 -15 120 -123 131 -117 15 10 0 25 -19 19 -15 -5 -15
-4 -1 8 24 20 19 43 -9 45 -18 1 -21 -1 -11 -8 11 -7 11 -9 -3 -9 -21 0 -80
49 -72 61 3 5 0 9 -5 9 -6 0 -11 -4 -11 -8z m110 -77 c-7 -9 -15 -13 -17 -11
-7 7 7 26 19 26 6 0 6 -6 -2 -15z"/>
<path d="M4960 3585 c0 -11 11 -15 40 -15 29 0 40 4 40 15 0 11 -11 15 -40 15
-29 0 -40 -4 -40 -15z"/>
<path d="M4853 3544 c-3 -8 -1 -26 5 -39 l11 -24 -37 22 c-28 16 -34 17 -24 5
7 -9 47 -30 87 -47 78 -33 106 -40 65 -16 -14 8 -19 14 -11 15 8 0 11 3 8 7
-4 3 -2 12 4 19 12 15 -3 27 -41 30 -14 1 -19 0 -12 -3 6 -2 12 -11 12 -18 0
-7 6 -15 13 -18 6 -2 9 -8 5 -12 -4 -4 -14 -2 -23 5 -8 7 -15 9 -15 4 0 -4 -6
1 -14 12 -9 11 -12 30 -9 47 6 29 -13 39 -24 11z m104 -50 c-3 -3 -12 -4 -19
-1 -8 3 -5 6 6 6 11 1 17 -2 13 -5z"/>
<path d="M4887 3499 c7 -7 15 -10 18 -7 3 3 -2 9 -12 12 -14 6 -15 5 -6 -5z"/>
<path d="M4998 3423 c6 -2 18 -2 25 0 6 3 1 5 -13 5 -14 0 -19 -2 -12 -5z"/>
<path d="M2782 2691 c-97 -33 -167 -128 -178 -238 -9 -84 22 -162 91 -230 58
-56 99 -73 181 -73 135 0 232 83 264 224 30 133 -57 283 -184 321 -65 20 -109
18 -174 -4z m166 -131 c76 -46 91 -166 31 -235 -57 -65 -141 -70 -197 -12 -55
57 -65 113 -32 184 35 77 127 106 198 63z"/>
<path d="M3352 2691 c-133 -46 -209 -204 -167 -346 22 -77 106 -165 178 -184
92 -26 222 5 261 61 22 30 22 30 -25 67 -39 32 -41 32 -60 15 -14 -12 -41 -19
-85 -22 -63 -4 -64 -4 -103 35 -52 51 -62 110 -33 177 37 81 119 108 204 65
l40 -21 39 38 39 38 -27 28 c-32 34 -119 68 -171 68 -20 -1 -61 -9 -90 -19z"/>
<path d="M5439 2697 c-89 -33 -138 -106 -126 -183 12 -71 57 -111 157 -140 85
-25 110 -41 110 -70 0 -52 -80 -56 -177 -8 -53 25 -55 26 -75 8 -38 -35 -42
-54 -16 -81 80 -88 263 -98 346 -20 56 52 68 130 29 188 -23 35 -70 63 -171
101 -74 29 -91 51 -57 79 31 26 78 24 136 -6 27 -13 50 -23 51 -22 20 20 54
83 50 93 -3 7 -29 25 -57 40 -63 31 -148 40 -200 21z"/>
<path d="M6327 2696 c-100 -37 -144 -137 -99 -226 22 -44 68 -75 149 -100 88
-27 105 -37 101 -63 -8 -53 -94 -57 -185 -8 l-52 28 -18 -21 c-47 -54 -48 -55
-22 -82 48 -52 96 -69 194 -69 111 0 154 18 190 80 29 49 32 97 7 145 -22 44
-67 74 -152 101 -37 12 -78 30 -91 40 -22 16 -22 18 -6 43 23 35 82 35 156 1
30 -14 55 -24 55 -23 20 40 36 82 36 93 0 8 -24 27 -52 41 -64 32 -155 41
-211 20z"/>
<path d="M2132 2428 l3 -273 60 0 60 0 3 82 c3 79 4 81 29 88 30 7 26 12 94
-97 l47 -74 66 -2 c36 -1 66 1 66 6 0 5 -22 46 -50 92 -27 46 -50 86 -50 89 0
3 13 14 29 23 58 33 88 141 60 215 -15 40 -57 82 -104 104 -33 15 -65 19 -178
19 l-137 0 2 -272z m284 126 c22 -32 20 -85 -2 -101 -10 -8 -46 -13 -86 -13
l-68 0 0 70 0 70 70 0 c64 0 71 -2 86 -26z"/>
<path d="M3692 2428 l3 -273 58 -3 57 -4 0 94 c0 92 10 133 28 113 5 -6 41
-54 81 -107 l72 -98 75 0 c41 0 74 2 74 4 0 3 -41 62 -91 133 -50 70 -95 135
-99 143 -6 11 4 31 33 66 42 51 139 182 145 197 2 4 -30 7 -71 7 -53 0 -76 -4
-80 -13 -6 -16 -157 -217 -163 -217 -3 0 -4 26 -2 58 1 31 1 83 0 115 l-2 57
-60 0 -60 0 2 -272z"/>
<path d="M4190 2427 l0 -274 185 -2 185 -2 0 60 0 60 -122 3 -122 3 0 45 0 45
102 3 102 3 0 59 0 60 -99 0 -99 0 -4 45 -3 45 117 0 118 0 0 60 0 60 -180 0
-180 0 0 -273z"/>
<path d="M4590 2641 l0 -60 73 -3 72 -3 5 -210 5 -210 58 -3 57 -3 0 216 0
215 75 0 76 0 -3 58 -3 57 -207 3 -208 2 0 -59z"/>
<path d="M5710 2687 c0 -7 24 -51 53 -98 125 -197 131 -213 137 -329 l5 -105
60 0 60 0 5 105 5 105 93 163 c50 89 92 165 92 168 0 3 -32 4 -71 2 l-71 -3
-53 -100 c-29 -54 -56 -100 -61 -102 -5 -2 -17 16 -27 40 -9 23 -35 70 -57
105 l-39 62 -66 0 c-47 0 -65 -4 -65 -13z"/>
<path d="M6630 2640 l0 -60 75 0 75 0 2 -212 3 -213 63 -3 62 -3 0 216 0 215
75 0 75 0 0 60 0 60 -215 0 -215 0 0 -60z"/>
<path d="M7110 2426 l0 -274 185 -2 185 -1 0 61 0 60 -120 0 -120 0 0 50 0 50
111 0 112 0 -7 38 c-3 20 -6 47 -6 60 0 21 -3 22 -105 22 l-105 0 0 45 0 45
120 0 120 0 0 60 0 60 -185 0 -185 0 0 -274z"/>
<path d="M7574 2668 c2 -18 4 -142 5 -275 l1 -243 60 0 60 0 0 162 0 161 51
-84 c28 -46 61 -104 74 -129 22 -44 25 -46 69 -48 36 -1 48 2 54 16 16 39 127
232 134 232 4 0 9 -69 10 -152 l3 -153 59 0 59 0 0 225 c-1 124 -2 246 -2 273
l-1 47 -74 0 -74 0 -60 -112 c-106 -200 -110 -205 -119 -182 -4 11 -42 81 -83
157 l-75 137 -77 0 -78 0 4 -32z"/>
<path d="M3237 1793 l-28 -4 3 -112 c3 -108 4 -112 26 -115 19 -3 22 1 22 32
0 35 1 36 40 36 55 0 90 34 90 88 0 24 -7 45 -17 55 -19 17 -91 27 -136 20z
m102 -62 c5 -9 5 -26 0 -39 -7 -19 -15 -23 -41 -20 -30 3 -33 6 -36 40 -2 28
1 37 15 40 27 6 53 -3 62 -21z"/>
<path d="M3452 1681 c3 -112 4 -116 26 -119 20 -3 22 1 22 38 0 34 3 41 17 38
10 -2 27 -17 38 -35 18 -29 60 -51 72 -39 3 3 -4 20 -15 37 l-20 32 21 28 c26
36 26 84 1 110 -15 15 -37 20 -92 23 l-73 4 3 -117z m132 46 c9 -15 7 -22 -13
-38 -38 -31 -81 -10 -81 39 0 21 4 23 41 20 27 -2 46 -9 53 -21z"/>
<path d="M3750 1783 c-115 -59 -52 -242 75 -219 44 9 86 55 91 102 11 91 -85
159 -166 117z m105 -56 c20 -28 19 -76 -2 -99 -20 -22 -70 -23 -95 -1 -21 19
-24 81 -5 105 25 32 78 29 102 -5z"/>
<path d="M4470 1793 c-30 -11 -50 -37 -50 -63 0 -33 23 -55 70 -67 41 -11 50
-37 20 -53 -17 -9 -25 -8 -40 5 -12 11 -26 14 -39 10 -43 -13 -14 -48 50 -60
49 -8 99 24 99 65 0 39 -28 66 -79 75 -31 5 -41 11 -41 25 0 24 33 34 60 20
25 -13 50 -7 50 13 0 11 -64 40 -81 36 -2 0 -11 -3 -19 -6z"/>
<path d="M4850 1679 c0 -112 1 -119 20 -119 19 0 20 7 20 118 0 111 -1 118
-20 119 -19 2 -20 -4 -20 -118z"/>
<path d="M5000 1782 c-27 -13 -38 -27 -49 -60 -16 -52 -9 -86 29 -123 23 -24
37 -29 75 -29 40 0 52 5 81 34 26 26 34 42 34 70 0 49 -23 92 -60 111 -38 20
-67 19 -110 -3z m107 -44 c22 -18 27 -76 9 -103 -21 -32 -76 -35 -106 -5 -64
64 27 166 97 108z"/>
<path d="M5230 1680 c0 -113 1 -120 20 -120 17 0 20 7 20 39 0 21 3 52 6 69
l6 31 52 -67 c33 -42 59 -67 71 -67 19 0 20 8 20 115 0 108 -1 115 -20 115
-18 0 -21 -8 -25 -72 l-5 -73 -58 75 c-32 41 -64 75 -72 75 -12 0 -15 -21 -15
-120z"/>
<path d="M5563 1783 c-3 -10 -24 -62 -46 -116 -22 -54 -37 -100 -34 -103 12
-12 47 8 47 27 0 17 7 19 60 19 55 0 60 -2 66 -25 4 -18 13 -25 30 -25 13 0
24 1 24 3 0 3 -52 125 -84 200 -18 40 -52 51 -63 20z m42 -83 c23 -45 20 -57
-15 -52 -16 2 -30 8 -30 12 0 11 22 70 26 70 2 0 10 -13 19 -30z"/>
<path d="M5760 1680 l0 -120 76 0 c72 0 75 1 72 23 -3 19 -10 22 -55 25 l-53
3 0 95 c0 87 -1 94 -20 94 -19 0 -20 -7 -20 -120z"/>
<path d="M6126 1779 c-38 -30 -37 -83 4 -104 16 -8 38 -15 50 -15 24 0 38 -26
21 -43 -8 -8 -22 -8 -51 0 -31 8 -42 7 -51 -3 -15 -18 -5 -31 37 -44 61 -20
124 13 124 64 0 33 -23 54 -76 67 -32 8 -44 16 -44 30 0 21 37 36 53 20 17
-17 57 -14 57 5 0 15 -55 44 -83 44 -8 0 -26 -9 -41 -21z"/>
<path d="M6386 1773 c-27 -54 -87 -205 -82 -210 7 -8 43 15 50 32 4 11 21 15
66 15 52 0 60 -2 60 -19 0 -10 7 -22 16 -25 24 -9 34 -7 34 7 0 13 -76 187
-93 215 -13 20 -36 14 -51 -15z m50 -78 c19 -46 19 -45 -20 -45 -34 0 -34 1
-26 30 17 60 26 63 46 15z"/>
<path d="M6590 1680 l0 -121 78 3 c69 3 77 5 77 23 0 17 -8 20 -57 23 l-58 3
0 88 c0 86 -5 101 -36 101 -2 0 -4 -54 -4 -120z"/>
<path d="M6818 1705 c-5 -143 -5 -142 55 -144 74 -2 107 7 107 30 0 17 -8 19
-61 19 -57 0 -60 1 -57 23 3 19 11 23 53 27 37 4 51 9 53 23 3 14 -5 17 -52
17 -53 0 -56 1 -56 25 0 22 4 24 58 27 48 3 57 6 60 23 3 19 -3 20 -77 20
l-80 0 -3 -90z"/>
<path d="M7090 1793 c-30 -11 -50 -37 -50 -63 0 -34 16 -48 72 -65 50 -14 61
-39 25 -56 -20 -9 -30 -8 -49 5 -27 17 -58 12 -58 -9 0 -19 78 -47 111 -40 37
8 71 51 63 79 -9 32 -30 50 -72 61 -20 6 -38 18 -40 27 -4 21 34 34 53 18 15
-13 55 -5 55 11 0 11 -62 39 -82 38 -7 0 -20 -3 -28 -6z"/>
<path d="M3980 1675 c0 -108 1 -115 20 -115 17 0 20 7 20 48 l0 48 48 0 c41
-1 47 2 47 19 0 17 -8 20 -47 23 -43 3 -48 5 -48 28 0 23 3 24 60 24 53 0 60
2 60 20 0 18 -7 20 -80 20 l-80 0 0 -115z"/>
<path d="M4199 1788 c-7 -25 -8 -59 -3 -135 l6 -93 80 0 c77 0 79 1 76 23 -3
19 -10 22 -60 25 -54 3 -58 5 -58 27 0 23 4 25 50 25 43 0 50 3 50 20 0 17 -7
20 -50 20 -27 0 -50 4 -50 9 0 5 -3 16 -6 25 -5 12 6 16 58 18 50 2 63 6 66
21 3 15 -6 17 -77 17 -45 0 -81 -1 -82 -2z"/>
<path d="M4650 1770 c-40 -40 -16 -93 48 -106 44 -9 60 -30 39 -51 -14 -15
-19 -14 -52 1 -26 12 -40 15 -47 8 -18 -18 -1 -40 41 -53 75 -22 128 23 105
90 -7 19 -21 30 -57 41 -38 12 -47 19 -45 35 3 21 35 26 70 10 23 -9 38 23 17
36 -27 17 -98 10 -119 -11z"/>
</g>
</svg>
